PathFileType	4	(X/Y/Z)	G:\GRF\jawan data\CompiledGRF\03. Mohit Kumar\0231~ac~Walking 06_markers.trc
DataRate	CameraRate	NumFrames	NumMarkers	Units	OrigDataRate	OrigDataStartFrame	OrigNumFrames
100.000000	100.000000	5	18	mm	100.000000	488	977
Frame#	Time	c7			r should			l should			sacrum			r asis			r bar 1			r knee 1			r bar 2			r mall			r heel			r met			l asis			l bar 1			l knee 1			l bar 2			l mall			l heel			l met			
		X1	Y1	Z1	X2	Y2	Z2	X3	Y3	Z3	X4	Y4	Z4	X5	Y5	Z5	X6	Y6	Z6	X7	Y7	Z7	X8	Y8	Z8	X9	Y9	Z9	X10	Y10	Z10	X11	Y11	Z11	X12	Y12	Z12	X13	Y13	Z13	X14	Y14	Z14	X15	Y15	Z15	X16	Y16	Z16	X17	Y17	Z17	X18	Y18	Z18	

489	4.88	-221.3055572509766	1495.917602539063	291.56884765625	-156.2185668945313	1449.269409179688	449.9223022460938	-182.2947845458984	1454.927978515625	124.1250076293945	-333.7568054199219	1040.078735351563	277.5985412597656	-152.5774383544922	995.0176391601563	399.2639770507813	-306.118896484375	602.6607055664063	456.0927429199219	-311.8070678710938	516.3480224609375	402.6824340820313	-438.8663024902344	211.0851440429688	412.9900207519531	-454.7156982421875	84.78044128417969	346.7515563964844	-515.7492065429688	55.30424499511719	297.8252868652344	-309.5951538085938	40.23262405395508	345.0843505859375	-159.9926910400391	1006.525512695313	151.9098205566406	-88.04401397705078	603.7589111328125	75.73860931396484	-30.81501770019531	536.5626220703125	129.0656280517578	16.41678810119629	264.0443115234375	79.0908203125	87.88591003417969	99.65657043457031	143.8469543457031	46.30446243286133	42.29571533203125	199.8829345703125	233.7697143554688	113.5475387573242	166.4193878173828	
490	4.89	-212.1663818359375	1495.125366210938	290.3871459960938	-146.7459259033203	1448.625366210938	448.8454895019531	-173.0249786376953	1453.990234375	122.9803924560547	-324.7146606445313	1039.461791992188	276.4521179199219	-144.1149749755859	994.0628051757813	398.8949890136719	-299.8714294433594	602.545166015625	455.4105834960938	-305.4544982910156	515.9716796875	402.1828918457031	-436.5233459472656	212.6438140869141	412.9229736328125	-453.9639282226563	86.01992034912109	347.0021057128906	-515.2756958007813	57.09856414794922	298.0277099609375	-309.59326171875	40.19496154785156	345.107666015625	-151.0484466552734	1005.67578125	151.1123199462891	-79.77154541015625	602.5731201171875	76.47308349609375	-23.62073707580566	535.4396362304688	129.9334411621094	24.84782218933105	262.5445861816406	80.65065765380859	96.81937408447266	98.72553253173828	146.0312042236328	54.81214904785156	41.74208450317383	202.2046508789063	242.5786285400391	113.0182342529297	168.6028137207031	
491	4.9	-203.0173034667969	1494.4267578125	289.1616821289063	-137.4109954833984	1448.111328125	447.6647033691406	-163.4523468017578	1453.107666015625	121.7732086181641	-315.5496826171875	1038.940795898438	275.2325134277344	-135.8821105957031	993.0880126953125	398.3890991210938	-293.5198974609375	602.45263671875	454.7506103515625	-299.1648559570313	515.7349853515625	401.7580261230469	-434.0641479492188	214.3565063476563	412.9408264160156	-453.1690063476563	87.39176940917969	347.3133544921875	-514.7063598632813	59.11165237426758	298.3362731933594	-309.5836486816406	40.16985702514648	345.1220703125	-141.5774536132813	1004.916564941406	150.5184326171875	-71.16082000732422	601.6043090820313	77.0330810546875	-16.99496078491211	533.8988037109375	130.7807312011719	32.56202697753906	260.7861328125	82.26990509033203	104.259895324707	97.22592926025391	148.1617126464844	62.18229293823242	40.30293655395508	204.3754119873047	250.0279846191406	111.0539779663086	171.3294525146484	
492	4.91	-193.8467712402344	1493.822509765625	287.8564453125	-128.1950531005859	1447.719970703125	446.4502563476563	-153.7778625488281	1452.266967773438	120.4968338012695	-306.3322448730469	1038.508666992188	273.9279174804688	-127.3127365112305	992.2633056640625	397.8647155761719	-286.8820190429688	602.4056396484375	454.0345153808594	-292.4762878417969	515.5377197265625	401.1983337402344	-431.1769409179688	216.0936889648438	413.015380859375	-452.2836303710938	88.99279022216797	347.6334228515625	-514.195068359375	61.47224044799805	298.6553344726563	-309.4519348144531	40.13574981689453	345.2197265625	-131.7982177734375	1004.220825195313	149.9123840332031	-62.14051055908203	600.9112548828125	77.47694396972656	-10.98723697662354	531.9400024414063	131.6555786132813	39.51440048217773	258.9196472167969	83.87968444824219	110.136344909668	95.21302795410156	150.2863311767578	67.74020385742188	38.42259979248047	206.1918640136719	255.8305206298828	107.9493560791016	174.6130523681641	
493	4.92	-184.6023101806641	1493.198364257813	286.5015258789063	-118.9781951904297	1447.381958007813	445.2549743652344	-144.1354064941406	1451.49072265625	119.1704254150391	-296.7793884277344	1038.043334960938	272.5601806640625	-118.3152008056641	991.5477294921875	397.3196411132813	-279.9659729003906	602.4304809570313	453.3826599121094	-285.7486267089844	515.376220703125	400.5837097167969	-427.98291015625	217.8939819335938	413.1195983886719	-451.3946838378906	90.81333923339844	348.0072326660156	-513.58447265625	64.07741546630859	299.1156616210938	-309.3789367675781	40.18091201782227	345.3670654296875	-121.3528213500977	1003.855712890625	149.3804473876953	-52.46382522583008	600.0838012695313	77.84676361083984	-2.541533708572388	530.8765258789063	132.724853515625	45.86395263671875	256.9549560546875	85.42042541503906	114.3383712768555	92.68701171875	152.3092346191406	70.85702514648438	36.41579818725586	207.6002502441406	259.4674682617188	103.6548919677734	178.3850708007813	
